<?xml version="1.0" encoding="utf-8"?>
<!-- Generator: Adobe Illustrator 17.0.0, SVG Export Plug-In . SVG Version: 6.00 Build 0)  -->
<!DOCTYPE svg PUBLIC "-//W3C//DTD SVG 1.1//EN" "http://www.w3.org/Graphics/SVG/1.1/DTD/svg11.dtd">
<svg version="1.1" id="Capa_1" xmlns="http://www.w3.org/2000/svg" xmlns:xlink="http://www.w3.org/1999/xlink" x="0px" y="0px"
	 width="1600px" height="582.979px" viewBox="0 0 1600 582.979" enable-background="new 0 0 1600 582.979" xml:space="preserve">
<g>
	<g>
		<path fill="#29313E" d="M721.578,177.004c6.214,2.463,11.356,6.014,15.428,10.663c4.064,4.653,7.107,10.355,9.122,17.106
			c2.01,6.751,3.015,14.419,3.015,23.004v93.898H694.55v-87.327c0-6.078-1.478-11.044-4.429-14.888
			c-2.951-3.844-7.244-5.77-12.877-5.77c-3.307,0-6.303,0.605-8.985,1.814c-2.683,1.205-4.965,2.863-6.843,4.961
			c-1.878,2.102-3.331,4.541-4.357,7.312c-1.033,2.771-1.546,5.678-1.546,8.717v85.181h-54.729v-87.327
			c0-6.078-1.474-11.044-4.425-14.888c-2.951-3.844-7.244-5.77-12.877-5.77c-3.311,0-6.307,0.605-8.989,1.814
			c-2.683,1.205-4.961,2.863-6.839,4.961c-1.878,2.102-3.336,4.541-4.361,7.312c-1.029,2.771-1.542,5.678-1.542,8.717v85.181
			h-54.597V176.667h44.803l3.488,21.599c2.771-3.844,6.014-7.312,9.726-10.395c3.708-3.087,7.756-5.702,12.141-7.848
			c4.381-2.146,9.005-3.8,13.883-4.965c4.873-1.161,9.814-1.742,14.823-1.742c11.176,0,20.409,2.17,27.701,6.507
			c7.284,4.337,12.717,10.483,16.297,18.443c2.771-3.756,6.01-7.175,9.726-10.263c3.708-3.083,7.712-5.702,12.005-7.848
			s8.805-3.82,13.546-5.029c4.741-1.205,9.57-1.81,14.487-1.81C708.096,173.316,715.36,174.545,721.578,177.004z"/>
		<path fill="#29313E" d="M881.541,317.246c-3.311,9.033-6.999,17.35-11.068,24.95c-4.072,7.6-8.965,14.155-14.687,19.653
			c-5.726,5.502-12.457,9.794-20.189,12.877c-7.736,3.087-16.882,4.629-27.433,4.629c-6.619,0-12.673-0.517-18.175-1.542
			c-5.498-1.033-9.95-2.17-13.346-3.424v-32.594h21.999c4.829,0,8.737-0.717,11.736-2.146c2.995-1.433,5.386-3.175,7.175-5.233
			c1.79-2.058,3.063-4.248,3.824-6.571c0.757-2.326,1.317-4.385,1.678-6.17l-57.68-145.007h58.753l27.765,96.449h1.878
			l25.623-96.449h53.788L881.541,317.246z"/>
		<path fill="#29313E" d="M1015.545,176.667h30.852v37.023h-30.852v55.266c0,3.131,0.224,5.858,0.673,8.185
			c0.444,2.326,1.249,4.292,2.415,5.902c1.161,1.61,2.727,2.815,4.693,3.62c1.966,0.805,4.517,1.209,7.648,1.209h15.424v32.194
			c-2.326,0.717-5.009,1.385-8.048,2.01s-6.17,1.161-9.39,1.61c-3.219,0.448-6.371,0.781-9.458,1.009
			c-3.083,0.22-5.834,0.332-8.249,0.332c-7.424,0-14.219-0.625-20.389-1.878c-6.17-1.253-11.468-3.372-15.897-6.371
			c-4.425-2.995-7.868-6.975-10.327-11.936c-2.463-4.965-3.688-11.156-3.688-18.579V213.69h-20.389v-37.023h22.536l11.804-43.998
			h40.642V176.667z"/>
		<path fill="#BE5E1F" d="M1180.269,178.009c10.107,3.131,18.716,7.848,25.823,14.155c7.111,6.303,12.609,14.195,16.501,23.673
			c3.888,9.482,5.834,20.569,5.834,33.267c0,12.701-1.946,23.813-5.834,33.335c-3.892,9.526-9.39,17.438-16.501,23.745
			c-7.107,6.303-15.716,11.02-25.823,14.151c-10.107,3.127-21.326,4.693-33.667,4.693c-12.341,0-23.541-1.566-33.603-4.693
			c-10.058-3.131-18.643-7.848-25.755-14.151c-7.107-6.307-12.589-14.219-16.433-23.745c-3.844-9.522-5.766-20.634-5.766-33.335
			c0-12.697,1.922-23.785,5.766-33.267c3.844-9.478,9.326-17.37,16.433-23.673c7.111-6.307,15.696-11.024,25.755-14.155
			c10.063-3.127,21.262-4.693,33.603-4.693C1158.943,173.316,1170.163,174.881,1180.269,178.009z M1134.261,212.617
			c-3.4,1.433-6.17,3.488-8.317,6.17s-3.736,5.926-4.761,9.726c-1.033,3.804-1.546,8.116-1.546,12.946v15.692
			c0,4.829,0.512,9.146,1.546,12.945c1.025,3.804,2.615,7.023,4.761,9.658c2.146,2.639,4.917,4.653,8.317,6.038
			c3.396,1.385,7.512,2.078,12.341,2.078c9.566,0,16.497-2.727,20.79-8.185c4.292-5.454,6.439-12.966,6.439-22.536v-15.692
			c0-4.829-0.516-9.142-1.542-12.946c-1.029-3.8-2.663-7.043-4.897-9.726c-2.234-2.683-5.053-4.737-8.449-6.17
			c-3.4-1.429-7.512-2.146-12.341-2.146C1141.773,210.471,1137.657,211.187,1134.261,212.617z"/>
		<path fill="#BE5E1F" d="M1363.505,178.009c10.107,3.131,18.715,7.848,25.823,14.155c7.111,6.303,12.609,14.195,16.501,23.673
			c3.888,9.482,5.834,20.569,5.834,33.267c0,12.701-1.946,23.813-5.834,33.335c-3.892,9.526-9.39,17.438-16.501,23.745
			c-7.107,6.303-15.716,11.02-25.823,14.151c-10.107,3.127-21.326,4.693-33.667,4.693c-12.341,0-23.541-1.566-33.603-4.693
			c-10.058-3.131-18.643-7.848-25.755-14.151c-7.107-6.307-12.589-14.219-16.433-23.745c-3.844-9.522-5.766-20.634-5.766-33.335
			c0-12.697,1.922-23.785,5.766-33.267c3.844-9.478,9.326-17.37,16.433-23.673c7.111-6.307,15.696-11.024,25.755-14.155
			c10.062-3.127,21.262-4.693,33.603-4.693C1342.178,173.316,1353.398,174.881,1363.505,178.009z M1317.496,212.617
			c-3.4,1.433-6.17,3.488-8.317,6.17s-3.736,5.926-4.761,9.726c-1.033,3.804-1.546,8.116-1.546,12.946v15.692
			c0,4.829,0.513,9.146,1.546,12.945c1.025,3.804,2.615,7.023,4.761,9.658c2.146,2.639,4.917,4.653,8.317,6.038
			c3.396,1.385,7.512,2.078,12.341,2.078c9.566,0,16.497-2.727,20.79-8.185c4.292-5.454,6.439-12.966,6.439-22.536v-15.692
			c0-4.829-0.517-9.142-1.542-12.946c-1.029-3.8-2.663-7.043-4.897-9.726c-2.234-2.683-5.053-4.737-8.449-6.17
			c-3.4-1.429-7.512-2.146-12.341-2.146C1325.008,210.471,1320.892,211.187,1317.496,212.617z"/>
		<path fill="#29313E" d="M1494.693,321.675h-54.729v-199.2h54.729V321.675z"/>
	</g>
	<g>
		<path display="none" fill="#BE5E1F" d="M376.371,220.01c-44.088-54.852-124.421-63.63-179.289-19.544
			c-54.811,44.137-63.553,124.337-19.347,179.273c44.079,54.834,124.358,63.543,179.174,19.461
			C411.777,355.114,420.471,274.831,376.371,220.01z M349.078,389.46c-49.443,39.762-121.854,31.906-161.614-17.554
			c-39.873-49.552-31.988-121.892,17.451-161.703c49.491-39.765,121.951-31.848,161.718,17.629
			C406.411,277.28,398.569,349.695,349.078,389.46z"/>
		<path fill="#BE5E1F" d="M383.532,413.446l35.392,16.38c10.153-11.042,19.053-23.211,26.419-36.36l-26.604-28.523l11.9-36.839
			l38.316-7.542c0.829-7.513,1.305-15.134,1.259-22.82c0.003-7.472-0.5-14.871-1.379-22.125l-38.265-7.471l-11.99-36.746
			l26.457-28.635c-7.4-13.151-16.305-25.313-26.448-36.317L383.23,182.95l-31.335-22.645l4.567-38.775
			c-13.093-5.969-26.99-10.572-41.468-13.511l-19.1,34.072l-38.676-0.199l-18.889-34.204c-14.954,2.96-29.298,7.595-42.809,13.763
			l4.59,38.77l-31.39,22.618l-35.351-16.477c-10.146,10.964-19.069,23.112-26.493,36.274l26.442,28.628l-12.033,36.724
			l-38.288,7.481c-0.903,7.644-1.419,15.469-1.402,23.434c0.061,7.271,0.509,14.411,1.294,21.464l38.276,7.581l0.272,0.843
			l70.167-52.056c4.387-17.202,14.014-33.225,28.765-45.406c36.936-30.804,91.866-25.694,122.541,11.327
			c30.844,37.099,25.614,92.039-11.439,122.701c-30.167,25.006-72.261,26.293-103.461,5.74l20.015-14.849
			c20.386,9.558,45.234,7.903,64.584-6.452s28.14-37.656,24.904-59.938l-53.413,39.627l-33.644-12.323l-2.037-35.772l53.413-39.627
			c-20.386-9.559-45.235-7.904-64.585,6.451c-19.35,14.356-28.14,37.656-24.903,59.939l-4.335,3.216l-15.624,11.591l-66.178,49.096
			l-19.799,21.238c7.424,13.159,16.284,25.451,26.431,36.485l35.424-16.39l31.27,22.737l-4.728,38.78
			c13.512,6.178,27.812,10.949,42.737,13.942l19-34.158l38.676,0.037l18.956,34.157c14.946-3.026,29.27-7.736,42.774-13.934
			l-4.701-38.751L383.532,413.446z"/>
	</g>
	<g>
		<g>
			<path fill="#29313E" d="M535.653,430.509h-22.45v22.819h-5.536v-43.794h5.536v15.623h22.45v-15.623h5.536v43.794h-5.536V430.509z
				"/>
			<path fill="#29313E" d="M556.932,409.534h27.679v5.29h-22.143v10.271h19.314v5.475h-19.314v17.345h21.589v5.413h-27.125V409.534z
				"/>
			<path fill="#29313E" d="M632.707,453.328h-6.335l-16.73-23.004h-6.274v23.004h-5.29v-43.794h15.192
				c2.768,0,5.352,1.107,7.32,3.075c1.968,1.969,3.075,4.552,3.075,7.319c0,4.859-3.383,8.919-7.873,10.088L632.707,453.328z
				 M603.367,425.034h9.903c2.83,0,5.105-2.275,5.105-5.105c0-2.829-2.276-5.104-5.105-5.104h-9.903V425.034z"/>
			<path fill="#29313E" d="M678.157,453.328h-6.335l-16.73-23.004h-6.274v23.004h-5.29v-43.794h15.192
				c2.768,0,5.352,1.107,7.32,3.075c1.968,1.969,3.075,4.552,3.075,7.319c0,4.859-3.383,8.919-7.873,10.088L678.157,453.328z
				 M648.818,425.034h9.903c2.83,0,5.105-2.275,5.105-5.105c0-2.829-2.276-5.104-5.105-5.104h-9.903V425.034z"/>
			<path fill="#29313E" d="M714.136,440.596h-17.899l-4.859,12.732h-5.905l16.854-43.794h5.72l16.915,43.794h-5.966L714.136,440.596
				z M705.217,417.469l-6.827,17.715h13.593L705.217,417.469z"/>
			<path fill="#29313E" d="M771.273,453.328v-34.937l-13.962,19.067l-13.901-19.067v34.937h-5.474v-43.794h5.782l13.593,18.698
				l13.593-18.698h5.843v43.794H771.273z"/>
			<path fill="#29313E" d="M795.812,409.534h5.536v43.794h-5.536V409.534z"/>
			<path fill="#29313E" d="M819.858,409.534h27.679v5.29h-22.144v10.271h19.313v5.475h-19.313v17.345h21.59v5.413h-27.125V409.534z"
				/>
			<path fill="#29313E" d="M867.216,418.699v34.629h-5.535v-43.794h6.027l23.373,34.629v-34.629h5.536v43.794h-5.967
				L867.216,418.699z"/>
			<path fill="#29313E" d="M922.199,414.948h-11.563v-5.413h28.662v5.413h-11.563v38.381h-5.535V414.948z"/>
			<path fill="#29313E" d="M974.479,440.596H956.58l-4.859,12.732h-5.904l16.853-43.794h5.721l16.915,43.794h-5.967L974.479,440.596
				z M965.561,417.469l-6.828,17.715h13.594L965.561,417.469z"/>
			<path fill="#29313E" d="M1007.689,453.267c-4.552-0.923-9.041-3.198-13.039-6.643l3.629-4.121
				c3.26,2.829,6.889,4.736,10.518,5.474c3.075,0.677,6.089,0.431,8.488-0.676c1.599-0.738,4.367-2.584,4.367-6.336
				c0-4.613-4.921-6.273-9.719-7.196c-0.431-0.062-7.319-1.477-10.087-3.075c-3.69-2.215-5.659-5.536-5.659-9.596
				c0-2.275,0.738-4.429,2.03-6.335c1.291-1.723,3.075-3.137,5.166-4.121c3.076-1.477,6.705-1.907,10.396-1.292
				c3.998,0.677,8.058,2.584,11.625,5.536l-3.506,4.244c-6.336-5.229-12.486-5.352-16.177-3.629
				c-2.522,1.168-3.998,3.321-3.998,5.535c0,4.183,3.567,5.782,9.226,7.012c2.338,0.554,7.197,1.354,10.088,3.015
				c3.998,2.214,6.089,5.658,6.089,9.902c0,2.521-0.677,4.859-2.091,6.889c-1.292,1.846-3.26,3.261-5.475,4.367
				c-2.337,1.169-4.736,1.538-7.442,1.538C1010.642,453.759,1009.166,453.574,1007.689,453.267z"/>
			<path fill="#29313E" d="M1086.169,440.596h-17.898l-4.859,12.732h-5.904l16.853-43.794h5.721l16.915,43.794h-5.967
				L1086.169,440.596z M1077.251,417.469l-6.828,17.715h13.594L1077.251,417.469z"/>
			<path fill="#29313E" d="M1139.737,453.267c-4.552-0.923-9.042-3.198-13.039-6.643l3.629-4.121
				c3.26,2.829,6.889,4.736,10.518,5.474c3.075,0.677,6.089,0.431,8.488-0.676c1.599-0.738,4.367-2.584,4.367-6.336
				c0-4.613-4.921-6.273-9.719-7.196c-0.431-0.062-7.319-1.477-10.087-3.075c-3.69-2.215-5.659-5.536-5.659-9.596
				c0-2.275,0.738-4.429,2.03-6.335c1.291-1.723,3.075-3.137,5.166-4.121c3.076-1.477,6.705-1.907,10.396-1.292
				c3.998,0.677,8.058,2.584,11.625,5.536l-3.506,4.244c-6.336-5.229-12.486-5.352-16.177-3.629
				c-2.522,1.168-3.998,3.321-3.998,5.535c0,4.183,3.567,5.782,9.226,7.012c2.338,0.554,7.197,1.354,10.088,3.015
				c3.998,2.214,6.089,5.658,6.089,9.902c0,2.521-0.677,4.859-2.091,6.889c-1.292,1.846-3.26,3.261-5.475,4.367
				c-2.337,1.169-4.736,1.538-7.442,1.538C1142.689,453.759,1141.214,453.574,1139.737,453.267z"/>
			<path fill="#29313E" d="M1205.671,409.534v27.74c0,9.227-7.504,16.669-16.729,16.669c-9.165,0-16.669-7.442-16.669-16.669v-27.74
				h5.475v27.74c0,6.212,5.043,11.317,11.194,11.317c6.212,0,11.194-5.105,11.194-11.317v-27.74H1205.671z"/>
			<path fill="#29313E" d="M1275.417,453.328v-34.937l-13.962,19.067l-13.901-19.067v34.937h-5.474v-43.794h5.781l13.594,18.698
				l13.593-18.698h5.844v43.794H1275.417z"/>
			<path fill="#29313E" d="M1296.02,409.534h27.679v5.29h-22.144v10.271h19.313v5.475h-19.313v17.345h21.59v5.413h-27.125V409.534z"
				/>
			<path fill="#29313E" d="M1337.164,409.534h14.146c12.425,0,22.513,9.842,22.513,21.897c0,12.055-10.088,21.896-22.513,21.896
				h-14.146V409.534z M1368.349,431.432c0-9.042-7.627-16.546-17.038-16.546h-8.672v33.091h8.672
				C1360.722,447.977,1368.349,440.473,1368.349,431.432z"/>
			<path fill="#29313E" d="M1388.889,409.534h5.535v43.794h-5.535V409.534z"/>
			<path fill="#29313E" d="M1411.397,409.534h14.146c12.425,0,22.513,9.842,22.513,21.897c0,12.055-10.088,21.896-22.513,21.896
				h-14.146V409.534z M1442.582,431.432c0-9.042-7.627-16.546-17.038-16.546h-8.672v33.091h8.672
				C1434.955,447.977,1442.582,440.473,1442.582,431.432z"/>
			<path fill="#29313E" d="M1482.006,440.596h-17.898l-4.859,12.732h-5.904l16.853-43.794h5.721l16.915,43.794h-5.967
				L1482.006,440.596z M1473.088,417.469l-6.828,17.715h13.594L1473.088,417.469z"/>
		</g>
	</g>
	<g>
		<rect x="507.07" y="350.323" fill="#29313E" width="255.982" height="18.603"/>
		<path fill="#29313E" d="M878.092,350.323c-3.961,6.976-8.609,13.212-13.87,18.603h629.76v-18.603H878.092z"/>
	</g>
	<circle fill="#BE5E1F" cx="275.415" cy="97.199" r="24.706"/>
	<circle fill="#BE5E1F" cx="394.323" cy="134.102" r="24.706"/>
	<circle fill="#BE5E1F" cx="156.507" cy="134.102" r="24.706"/>
</g>
<g>
	<path fill="#FFFFFF" d="M659.994,703.738c6.214,2.463,11.356,6.014,15.428,10.663c4.064,4.653,7.107,10.355,9.122,17.106
		c2.01,6.751,3.015,14.419,3.015,23.004v93.898h-54.593v-87.327c0-6.078-1.478-11.044-4.429-14.888
		c-2.951-3.844-7.244-5.77-12.877-5.77c-3.307,0-6.303,0.605-8.985,1.814c-2.683,1.205-4.965,2.863-6.843,4.961
		c-1.878,2.102-3.331,4.541-4.357,7.312c-1.033,2.771-1.546,5.678-1.546,8.717v85.181H539.2v-87.327
		c0-6.078-1.474-11.044-4.425-14.888c-2.951-3.844-7.244-5.77-12.877-5.77c-3.311,0-6.307,0.605-8.989,1.814
		c-2.683,1.205-4.961,2.863-6.839,4.961c-1.878,2.102-3.335,4.541-4.361,7.312c-1.029,2.771-1.542,5.678-1.542,8.717v85.181H445.57
		V703.402h44.803L493.861,725c2.771-3.844,6.014-7.312,9.726-10.395c3.708-3.087,7.756-5.702,12.141-7.848
		c4.381-2.146,9.005-3.8,13.882-4.965c4.873-1.161,9.814-1.742,14.823-1.742c11.176,0,20.409,2.17,27.701,6.507
		c7.284,4.337,12.717,10.483,16.297,18.443c2.771-3.756,6.01-7.175,9.726-10.263c3.708-3.083,7.712-5.702,12.005-7.848
		s8.805-3.82,13.546-5.029c4.741-1.205,9.57-1.81,14.487-1.81C646.512,700.05,653.776,701.279,659.994,703.738z"/>
	<path fill="#FFFFFF" d="M819.957,843.98c-3.311,9.033-6.999,17.35-11.068,24.95c-4.072,7.6-8.965,14.155-14.687,19.652
		c-5.726,5.502-12.457,9.794-20.189,12.878c-7.736,3.087-16.882,4.629-27.433,4.629c-6.619,0-12.673-0.517-18.175-1.542
		c-5.498-1.033-9.95-2.17-13.346-3.424V868.53h21.999c4.829,0,8.737-0.717,11.736-2.146c2.995-1.433,5.386-3.175,7.175-5.233
		s3.063-4.248,3.824-6.571c0.757-2.326,1.317-4.385,1.678-6.17l-57.68-145.007h58.753l27.765,96.449h1.878l25.623-96.449h53.788
		L819.957,843.98z"/>
	<path fill="#FFFFFF" d="M953.961,703.402h30.852v37.023h-30.852v55.266c0,3.131,0.224,5.858,0.673,8.185
		c0.444,2.326,1.249,4.292,2.415,5.902c1.161,1.61,2.727,2.815,4.693,3.62c1.966,0.805,4.517,1.209,7.648,1.209h15.424v32.194
		c-2.326,0.717-5.009,1.385-8.048,2.01s-6.17,1.161-9.39,1.61s-6.371,0.781-9.458,1.009c-3.083,0.22-5.834,0.332-8.249,0.332
		c-7.424,0-14.219-0.625-20.389-1.878c-6.17-1.253-11.468-3.372-15.897-6.371c-4.425-2.995-7.868-6.975-10.327-11.936
		c-2.463-4.965-3.688-11.156-3.688-18.579v-72.572h-20.389v-37.023h22.536l11.804-43.998h40.642V703.402z"/>
	<path fill="#FFFFFF" d="M1118.685,704.743c10.106,3.131,18.715,7.848,25.823,14.155c7.111,6.303,12.609,14.195,16.501,23.673
		c3.888,9.482,5.834,20.569,5.834,33.267c0,12.701-1.946,23.813-5.834,33.335c-3.892,9.526-9.39,17.438-16.501,23.745
		c-7.107,6.303-15.716,11.019-25.823,14.151c-10.107,3.127-21.326,4.693-33.667,4.693c-12.341,0-23.541-1.566-33.603-4.693
		c-10.058-3.131-18.643-7.848-25.755-14.151c-7.107-6.307-12.589-14.219-16.433-23.745c-3.844-9.522-5.766-20.634-5.766-33.335
		c0-12.697,1.922-23.785,5.766-33.267c3.844-9.478,9.326-17.37,16.433-23.673c7.111-6.307,15.696-11.023,25.755-14.155
		c10.062-3.127,21.262-4.693,33.603-4.693C1097.359,700.05,1108.579,701.616,1118.685,704.743z M1072.677,739.351
		c-3.4,1.433-6.17,3.488-8.317,6.17c-2.146,2.683-3.736,5.926-4.761,9.726c-1.033,3.804-1.546,8.116-1.546,12.945v15.692
		c0,4.829,0.513,9.146,1.546,12.945c1.025,3.804,2.615,7.023,4.761,9.658c2.146,2.639,4.917,4.653,8.317,6.038
		c3.396,1.385,7.512,2.078,12.341,2.078c9.566,0,16.497-2.727,20.79-8.185c4.292-5.454,6.439-12.966,6.439-22.536v-15.692
		c0-4.829-0.517-9.142-1.542-12.945c-1.029-3.8-2.663-7.043-4.897-9.726c-2.234-2.683-5.053-4.737-8.449-6.17
		c-3.4-1.43-7.512-2.146-12.341-2.146C1080.189,737.205,1076.073,737.922,1072.677,739.351z"/>
	<path fill="#FFFFFF" d="M1301.92,704.743c10.107,3.131,18.716,7.848,25.823,14.155c7.111,6.303,12.609,14.195,16.501,23.673
		c3.888,9.482,5.834,20.569,5.834,33.267c0,12.701-1.946,23.813-5.834,33.335c-3.892,9.526-9.39,17.438-16.501,23.745
		c-7.107,6.303-15.716,11.019-25.823,14.151c-10.107,3.127-21.326,4.693-33.667,4.693c-12.341,0-23.541-1.566-33.603-4.693
		c-10.058-3.131-18.643-7.848-25.755-14.151c-7.107-6.307-12.589-14.219-16.433-23.745c-3.844-9.522-5.766-20.634-5.766-33.335
		c0-12.697,1.922-23.785,5.766-33.267c3.844-9.478,9.326-17.37,16.433-23.673c7.111-6.307,15.696-11.023,25.755-14.155
		c10.062-3.127,21.262-4.693,33.603-4.693C1280.594,700.05,1291.814,701.616,1301.92,704.743z M1255.912,739.351
		c-3.4,1.433-6.17,3.488-8.317,6.17s-3.736,5.926-4.761,9.726c-1.033,3.804-1.546,8.116-1.546,12.945v15.692
		c0,4.829,0.512,9.146,1.546,12.945c1.025,3.804,2.615,7.023,4.761,9.658c2.146,2.639,4.917,4.653,8.317,6.038
		c3.396,1.385,7.512,2.078,12.341,2.078c9.566,0,16.497-2.727,20.79-8.185c4.292-5.454,6.439-12.966,6.439-22.536v-15.692
		c0-4.829-0.516-9.142-1.542-12.945c-1.029-3.8-2.663-7.043-4.897-9.726s-5.053-4.737-8.449-6.17
		c-3.4-1.43-7.512-2.146-12.341-2.146C1263.424,737.205,1259.308,737.922,1255.912,739.351z"/>
	<path fill="#FFFFFF" d="M1433.109,848.409h-54.729v-199.2h54.729V848.409z"/>
</g>
<g>
	<g>
		<path fill="#FFFFFF" d="M474.069,957.244h-22.45v22.819h-5.536v-43.794h5.536v15.623h22.45v-15.623h5.536v43.794h-5.536V957.244z"
			/>
		<path fill="#FFFFFF" d="M495.348,936.269h27.679v5.29h-22.143v10.271h19.314v5.475h-19.314v17.345h21.589v5.413h-27.125V936.269z"
			/>
		<path fill="#FFFFFF" d="M571.122,980.063h-6.335l-16.73-23.004h-6.274v23.004h-5.29v-43.794h15.192
			c2.768,0,5.352,1.107,7.32,3.075c1.968,1.969,3.075,4.552,3.075,7.319c0,4.859-3.383,8.919-7.873,10.088L571.122,980.063z
			 M541.783,951.769h9.903c2.83,0,5.105-2.275,5.105-5.105c0-2.829-2.276-5.104-5.105-5.104h-9.903V951.769z"/>
		<path fill="#FFFFFF" d="M616.573,980.063h-6.335l-16.73-23.004h-6.274v23.004h-5.29v-43.794h15.192
			c2.768,0,5.352,1.107,7.32,3.075c1.968,1.969,3.075,4.552,3.075,7.319c0,4.859-3.383,8.919-7.873,10.088L616.573,980.063z
			 M587.234,951.769h9.903c2.83,0,5.105-2.275,5.105-5.105c0-2.829-2.276-5.104-5.105-5.104h-9.903V951.769z"/>
		<path fill="#FFFFFF" d="M652.552,967.33h-17.899l-4.859,12.732h-5.905l16.854-43.794h5.72l16.915,43.794h-5.966L652.552,967.33z
			 M643.633,944.203l-6.827,17.715h13.593L643.633,944.203z"/>
		<path fill="#FFFFFF" d="M709.689,980.063v-34.937l-13.962,19.067l-13.901-19.067v34.937h-5.474v-43.794h5.782l13.593,18.698
			l13.593-18.698h5.843v43.794H709.689z"/>
		<path fill="#FFFFFF" d="M734.227,936.269h5.536v43.794h-5.536V936.269z"/>
		<path fill="#FFFFFF" d="M758.274,936.269h27.679v5.29H763.81v10.271h19.313v5.475H763.81v17.345h21.59v5.413h-27.125V936.269z"/>
		<path fill="#FFFFFF" d="M805.632,945.434v34.629h-5.535v-43.794h6.027l23.373,34.629v-34.629h5.536v43.794h-5.967L805.632,945.434
			z"/>
		<path fill="#FFFFFF" d="M860.615,941.682h-11.563v-5.413h28.662v5.413H866.15v38.381h-5.535V941.682z"/>
		<path fill="#FFFFFF" d="M912.894,967.33h-17.898l-4.859,12.732h-5.904l16.853-43.794h5.721l16.915,43.794h-5.967L912.894,967.33z
			 M903.977,944.203l-6.828,17.715h13.594L903.977,944.203z"/>
		<path fill="#FFFFFF" d="M946.105,980.001c-4.552-0.923-9.041-3.198-13.039-6.643l3.629-4.121c3.26,2.829,6.889,4.736,10.518,5.474
			c3.075,0.677,6.089,0.431,8.488-0.676c1.599-0.738,4.367-2.584,4.367-6.336c0-4.613-4.921-6.273-9.719-7.196
			c-0.431-0.062-7.319-1.477-10.087-3.075c-3.69-2.215-5.659-5.536-5.659-9.596c0-2.275,0.738-4.429,2.03-6.335
			c1.291-1.723,3.075-3.137,5.166-4.121c3.076-1.477,6.705-1.907,10.396-1.292c3.998,0.677,8.058,2.584,11.625,5.536l-3.506,4.244
			c-6.336-5.229-12.486-5.352-16.177-3.629c-2.522,1.168-3.998,3.321-3.998,5.535c0,4.183,3.567,5.782,9.226,7.012
			c2.338,0.554,7.197,1.354,10.088,3.015c3.998,2.214,6.089,5.658,6.089,9.902c0,2.521-0.677,4.859-2.091,6.889
			c-1.292,1.846-3.26,3.261-5.475,4.367c-2.337,1.169-4.736,1.538-7.442,1.538C949.058,980.494,947.582,980.309,946.105,980.001z"/>
		<path fill="#FFFFFF" d="M1024.585,967.33h-17.898l-4.859,12.732h-5.904l16.853-43.794h5.721l16.915,43.794h-5.967L1024.585,967.33
			z M1015.667,944.203l-6.828,17.715h13.594L1015.667,944.203z"/>
		<path fill="#FFFFFF" d="M1078.153,980.001c-4.552-0.923-9.042-3.198-13.039-6.643l3.629-4.121
			c3.26,2.829,6.889,4.736,10.518,5.474c3.075,0.677,6.089,0.431,8.488-0.676c1.599-0.738,4.367-2.584,4.367-6.336
			c0-4.613-4.921-6.273-9.719-7.196c-0.431-0.062-7.319-1.477-10.087-3.075c-3.69-2.215-5.659-5.536-5.659-9.596
			c0-2.275,0.738-4.429,2.03-6.335c1.291-1.723,3.075-3.137,5.166-4.121c3.076-1.477,6.705-1.907,10.396-1.292
			c3.998,0.677,8.058,2.584,11.625,5.536l-3.506,4.244c-6.336-5.229-12.486-5.352-16.177-3.629
			c-2.522,1.168-3.998,3.321-3.998,5.535c0,4.183,3.567,5.782,9.226,7.012c2.338,0.554,7.197,1.354,10.088,3.015
			c3.998,2.214,6.089,5.658,6.089,9.902c0,2.521-0.677,4.859-2.091,6.889c-1.292,1.846-3.26,3.261-5.475,4.367
			c-2.337,1.169-4.736,1.538-7.442,1.538C1081.105,980.494,1079.63,980.309,1078.153,980.001z"/>
		<path fill="#FFFFFF" d="M1144.087,936.269v27.74c0,9.227-7.504,16.669-16.729,16.669c-9.165,0-16.669-7.442-16.669-16.669v-27.74
			h5.475v27.74c0,6.212,5.043,11.317,11.194,11.317c6.212,0,11.194-5.105,11.194-11.317v-27.74H1144.087z"/>
		<path fill="#FFFFFF" d="M1213.833,980.063v-34.937l-13.962,19.067l-13.901-19.067v34.937h-5.474v-43.794h5.781l13.594,18.698
			l13.593-18.698h5.844v43.794H1213.833z"/>
		<path fill="#FFFFFF" d="M1234.435,936.269h27.679v5.29h-22.144v10.271h19.313v5.475h-19.313v17.345h21.59v5.413h-27.125V936.269z"
			/>
		<path fill="#FFFFFF" d="M1275.58,936.269h14.146c12.425,0,22.513,9.842,22.513,21.897c0,12.055-10.088,21.896-22.513,21.896
			h-14.146V936.269z M1306.765,958.166c0-9.042-7.627-16.546-17.038-16.546h-8.672v33.091h8.672
			C1299.138,974.711,1306.765,967.207,1306.765,958.166z"/>
		<path fill="#FFFFFF" d="M1327.305,936.269h5.535v43.794h-5.535V936.269z"/>
		<path fill="#FFFFFF" d="M1349.813,936.269h14.146c12.425,0,22.513,9.842,22.513,21.897c0,12.055-10.088,21.896-22.513,21.896
			h-14.146V936.269z M1380.998,958.166c0-9.042-7.627-16.546-17.038-16.546h-8.672v33.091h8.672
			C1373.371,974.711,1380.998,967.207,1380.998,958.166z"/>
		<path fill="#FFFFFF" d="M1420.422,967.33h-17.898l-4.859,12.732h-5.904l16.853-43.794h5.721l16.915,43.794h-5.967L1420.422,967.33
			z M1411.504,944.203l-6.828,17.715h13.594L1411.504,944.203z"/>
	</g>
</g>
<g>
	<rect x="445.486" y="877.057" fill="#FFFFFF" width="255.982" height="18.603"/>
	<path fill="#FFFFFF" d="M816.508,877.057c-3.961,6.976-8.609,13.212-13.87,18.603h629.76v-18.603H816.508z"/>
</g>
</svg>
